<svg width="1020" height="510" xmlns="http://www.w3.org/2000/svg">
  <defs>
    <linearGradient id="bgGrad" x1="0%" y1="0%" x2="100%" y2="100%">
      <stop offset="0%" style="stop-color:#3b82f6;stop-opacity:1" />
      <stop offset="100%" style="stop-color:#2dd4bf;stop-opacity:1" />
    </linearGradient>
    <filter id="shadow" x="-20%" y="-20%" width="140%" height="140%">
      <feDropShadow dx="0" dy="8" stdDeviation="15" flood-color="#000" flood-opacity="0.3"/>
    </filter>
  </defs>
  <!-- Background -->
  <rect width="1020" height="510" fill="url(#bgGrad)" />
  
  <!-- Subtle Grid Pattern Background -->
  <g opacity="0.1" stroke="#ffffff" stroke-width="1">
    <path d="M0,51 L1020,51 M0,102 L1020,102 M0,153 L1020,153 M0,204 L1020,204 M0,255 L1020,255 M0,306 L1020,306 M0,357 L1020,357 M0,408 L1020,408 M0,459 L1020,459" />
    <path d="M102,0 L102,510 M204,0 L204,510 M306,0 L306,510 M408,0 L408,510 M510,0 L510,510 M612,0 L612,510 M714,0 L714,510 M816,0 L816,510 M918,0 L918,510" />
  </g>

  <!-- Large floating circles for aesthetics -->
  <circle cx="100" cy="80" r="150" fill="#ffffff" opacity="0.05" />
  <circle cx="950" cy="450" r="200" fill="#ffffff" opacity="0.05" />
  
  <!-- Text Label -->
  <rect x="50" y="40" width="160" height="40" rx="20" fill="#000000" opacity="0.2" />
  <text x="130" y="65" font-family="-apple-system, BlinkMacSystemFont, 'Segoe UI', Roboto, Helvetica, Arial, sans-serif" font-size="16" font-weight="bold" fill="#ffffff" text-anchor="middle" letter-spacing="2" opacity="0.9">
    HUSTLE TEACHER
  </text>
  
  <!-- Main Title -->
  <text font-family="-apple-system, BlinkMacSystemFont, 'Segoe UI', Roboto, Helvetica, Arial, sans-serif" font-size="52" font-weight="900" fill="#ffffff" text-anchor="middle" filter="url(#shadow)">
      <tspan x="510" y="157.5">How To Build a Passive</tspan><tspan x="510" y="222.5">Income Empire With</tspan><tspan x="510" y="287.5">Trading Cryptocurrency</tspan><tspan x="510" y="352.5">Trading</tspan>
  </text>
  
  <!-- Content Tag -->
  <rect x="510" y="440" width="220" height="36" rx="18" fill="#ffffff" transform="translate(-110)" opacity="0.9" />
  <text x="510" y="464" font-family="-apple-system, BlinkMacSystemFont, 'Segoe UI', Roboto, Helvetica, Arial, sans-serif" font-size="14" font-weight="bold" fill="#3b82f6" text-anchor="middle" letter-spacing="1">
    ONLINE TRADING
  </text>
</svg>